<svg xmlns="http://www.w3.org/2000/svg" width="100%" viewBox="0 0 1180 920" role="img" aria-labelledby="title description">
<title id="title">Madumita's GenAI and Machine Learning Technical Ecosystem</title>
<desc id="description">Animated glass cards showing agentic AI, RAG, evaluation, backend engineering, data infrastructure, cloud, MLOps, and forecasting skills.</desc>

<defs>
  <linearGradient id="accent" x1="0" y1="0" x2="1" y2="1">
    <stop offset="0%" stop-color="#8B5CF6"/>
    <stop offset="48%" stop-color="#22D3EE"/>
    <stop offset="100%" stop-color="#10B981"/>
    <animate attributeName="x1" values="0;1;0" dur="9s" repeatCount="indefinite"/>
    <animate attributeName="x2" values="1;0;1" dur="9s" repeatCount="indefinite"/>
  </linearGradient>

  <linearGradient id="cardSurface" x1="0" y1="0" x2="0" y2="1">
    <stop offset="0%" stop-color="#172033"/>
    <stop offset="100%" stop-color="#0D1423"/>
  </linearGradient>

  <linearGradient id="reflection" x1="0" y1="0" x2="1" y2="1">
    <stop offset="0%" stop-color="#FFFFFF" stop-opacity=".15"/>
    <stop offset="42%" stop-color="#FFFFFF" stop-opacity=".025"/>
    <stop offset="100%" stop-color="#FFFFFF" stop-opacity="0"/>
  </linearGradient>

  <radialGradient id="purpleGlow">
    <stop offset="0%" stop-color="#8B5CF6" stop-opacity=".23"/>
    <stop offset="100%" stop-color="#8B5CF6" stop-opacity="0"/>
  </radialGradient>

  <radialGradient id="cyanGlow">
    <stop offset="0%" stop-color="#22D3EE" stop-opacity=".18"/>
    <stop offset="100%" stop-color="#22D3EE" stop-opacity="0"/>
  </radialGradient>

  <pattern id="grid" width="30" height="30" patternUnits="userSpaceOnUse">
    <path d="M30 0H0V30" fill="none" stroke="#FFFFFF" stroke-opacity=".025"/>
  </pattern>

  <filter id="shadow" x="-25%" y="-25%" width="150%" height="160%">
    <feDropShadow dx="0" dy="14" stdDeviation="18" flood-color="#020617" flood-opacity=".62"/>
  </filter>

  <filter id="softGlow" x="-60%" y="-60%" width="220%" height="220%">
    <feGaussianBlur stdDeviation="6" result="blur"/>
    <feMerge><feMergeNode in="blur"/><feMergeNode in="SourceGraphic"/></feMerge>
  </filter>

  <style>
    .title { font-family: Inter,Segoe UI,Arial,sans-serif; font-size:30px; font-weight:800; fill:#F8FAFC; }
    .subtitle { font-family:ui-monospace,SFMono-Regular,Menlo,Consolas,monospace; font-size:13px; fill:#94A3B8; }
    .card-title { font-family:Inter,Segoe UI,Arial,sans-serif; font-size:19px; font-weight:750; fill:#F8FAFC; }
    .card-label { font-family:ui-monospace,SFMono-Regular,Menlo,Consolas,monospace; font-size:10.5px; font-weight:700; letter-spacing:1.35px; fill:#64748B; }
    .chip-text { font-family:ui-monospace,SFMono-Regular,Menlo,Consolas,monospace; font-size:11.5px; font-weight:600; fill:#E2E8F0; }
    .small { font-family:ui-monospace,SFMono-Regular,Menlo,Consolas,monospace; font-size:10px; fill:#94A3B8; }
    .status { font-family:ui-monospace,SFMono-Regular,Menlo,Consolas,monospace; font-size:10px; font-weight:700; fill:#10B981; letter-spacing:1px; }
  </style>
</defs>

<rect width="1180" height="920" rx="30" fill="#030712"/>
<rect width="1180" height="920" rx="30" fill="url(#grid)"/>

<circle cx="130" cy="100" r="280" fill="url(#purpleGlow)">
  <animateTransform attributeName="transform" type="translate" values="0 0;35 20;0 0" dur="11s" repeatCount="indefinite"/>
</circle>
<circle cx="1080" cy="820" r="310" fill="url(#cyanGlow)">
  <animateTransform attributeName="transform" type="translate" values="0 0;-35 -25;0 0" dur="13s" repeatCount="indefinite"/>
</circle>

<text x="54" y="70" class="title">GenAI Technical Ecosystem</text>
<text x="54" y="98" class="subtitle">$ stack --visualize --scope=production-ai</text>
<circle cx="1080" cy="65" r="5" fill="#10B981" filter="url(#softGlow)">
  <animate attributeName="opacity" values=".35;1;.35" dur="2.2s" repeatCount="indefinite"/>
</circle>
<text x="1097" y="69" class="status">ONLINE</text>

<rect x="54" y="119" width="1072" height="1" fill="#FFFFFF" opacity=".08"/>
<rect x="54" y="119" width="260" height="2" fill="url(#accent)">
  <animate attributeName="x" values="54;866;54" dur="8s" repeatCount="indefinite"/>
</rect>

<!-- Helper: cards are 520 x 220 -->

<!-- 1 AGENTIC AI -->
<g filter="url(#shadow)">
  <rect x="54" y="150" width="520" height="220" rx="24" fill="url(#cardSurface)" stroke="#FFFFFF" stroke-opacity=".08"/>
  <rect x="54" y="150" width="520" height="220" rx="24" fill="none" stroke="url(#accent)" stroke-opacity=".34">
    <animate attributeName="stroke-opacity" values=".22;.72;.22" dur="5s" repeatCount="indefinite"/>
  </rect>
  <path d="M54 174Q54 150 78 150H300L220 370H78Q54 370 54 346Z" fill="url(#reflection)" opacity=".3"/>
  <circle cx="91" cy="190" r="21" fill="#7C3AED" fill-opacity=".16"/>
  <text x="91" y="198" text-anchor="middle" font-size="22">🧠</text>
  <text x="126" y="188" class="card-label">01 / AGENT ORCHESTRATION</text>
  <text x="126" y="218" class="card-title">Agentic AI &amp; LLM Systems</text>

  <g>
    <rect x="82" y="244" width="82" height="32" rx="16" fill="#7C3AED" fill-opacity=".13" stroke="#8B5CF6" stroke-opacity=".5"/>
    <text x="123" y="265" text-anchor="middle" class="chip-text">OpenAI</text>

    <rect x="174" y="244" width="94" height="32" rx="16" fill="#22D3EE" fill-opacity=".10" stroke="#22D3EE" stroke-opacity=".48"/>
    <text x="221" y="265" text-anchor="middle" class="chip-text">Anthropic</text>

    <rect x="278" y="244" width="94" height="32" rx="16" fill="#10B981" fill-opacity=".10" stroke="#10B981" stroke-opacity=".48"/>
    <text x="325" y="265" text-anchor="middle" class="chip-text">LangGraph</text>

    <rect x="382" y="244" width="94" height="32" rx="16" fill="#7C3AED" fill-opacity=".13" stroke="#8B5CF6" stroke-opacity=".5"/>
    <text x="429" y="265" text-anchor="middle" class="chip-text">LangChain</text>
  </g>

  <g>
    <rect x="82" y="288" width="66" height="32" rx="16" fill="#22D3EE" fill-opacity=".10" stroke="#22D3EE" stroke-opacity=".48"/>
    <text x="115" y="309" text-anchor="middle" class="chip-text">DSPy</text>

    <rect x="158" y="288" width="82" height="32" rx="16" fill="#10B981" fill-opacity=".10" stroke="#10B981" stroke-opacity=".48"/>
    <text x="199" y="309" text-anchor="middle" class="chip-text">AutoGen</text>

    <rect x="250" y="288" width="78" height="32" rx="16" fill="#7C3AED" fill-opacity=".13" stroke="#8B5CF6" stroke-opacity=".5"/>
    <text x="289" y="309" text-anchor="middle" class="chip-text">CrewAI</text>

    <rect x="338" y="288" width="64" height="32" rx="16" fill="#22D3EE" fill-opacity=".10" stroke="#22D3EE" stroke-opacity=".48"/>
    <text x="370" y="309" text-anchor="middle" class="chip-text">MCP</text>

    <rect x="412" y="288" width="78" height="32" rx="16" fill="#10B981" fill-opacity=".10" stroke="#10B981" stroke-opacity=".48"/>
    <text x="451" y="309" text-anchor="middle" class="chip-text">Tools</text>
  </g>

  <text x="82" y="347" class="small">Core: LangGraph · LangChain · DSPy · tool calling</text>
  <text x="82" y="363" class="small">Exploring: AutoGen · CrewAI · MCP ecosystems</text>
</g>

<!-- 2 RAG -->
<g filter="url(#shadow)">
  <rect x="606" y="150" width="520" height="220" rx="24" fill="url(#cardSurface)" stroke="#FFFFFF" stroke-opacity=".08"/>
  <rect x="606" y="150" width="520" height="220" rx="24" fill="none" stroke="url(#accent)" stroke-opacity=".34">
    <animate attributeName="stroke-opacity" values=".72;.22;.72" dur="5s" repeatCount="indefinite"/>
  </rect>
  <path d="M606 174Q606 150 630 150H850L770 370H630Q606 370 606 346Z" fill="url(#reflection)" opacity=".3"/>
  <circle cx="643" cy="190" r="21" fill="#22D3EE" fill-opacity=".14"/>
  <text x="643" y="198" text-anchor="middle" font-size="22">🔍</text>
  <text x="678" y="188" class="card-label">02 / KNOWLEDGE SYSTEMS</text>
  <text x="678" y="218" class="card-title">Advanced RAG &amp; Retrieval</text>

  <g>
    <rect x="634" y="244" width="64" height="32" rx="16" fill="#22D3EE" fill-opacity=".10" stroke="#22D3EE" stroke-opacity=".48"/>
    <text x="666" y="265" text-anchor="middle" class="chip-text">RAG</text>

    <rect x="708" y="244" width="112" height="32" rx="16" fill="#10B981" fill-opacity=".10" stroke="#10B981" stroke-opacity=".48"/>
    <text x="764" y="265" text-anchor="middle" class="chip-text">Hybrid Search</text>

    <rect x="830" y="244" width="92" height="32" rx="16" fill="#7C3AED" fill-opacity=".13" stroke="#8B5CF6" stroke-opacity=".5"/>
    <text x="876" y="265" text-anchor="middle" class="chip-text">Reranking</text>

    <rect x="932" y="244" width="112" height="32" rx="16" fill="#22D3EE" fill-opacity=".10" stroke="#22D3EE" stroke-opacity=".48"/>
    <text x="988" y="265" text-anchor="middle" class="chip-text">Metadata Filters</text>
  </g>

  <g>
    <rect x="634" y="288" width="110" height="32" rx="16" fill="#10B981" fill-opacity=".10" stroke="#10B981" stroke-opacity=".48"/>
    <text x="689" y="309" text-anchor="middle" class="chip-text">Vector Search</text>

    <rect x="754" y="288" width="96" height="32" rx="16" fill="#7C3AED" fill-opacity=".13" stroke="#8B5CF6" stroke-opacity=".5"/>
    <text x="802" y="309" text-anchor="middle" class="chip-text">Embeddings</text>

    <rect x="860" y="288" width="88" height="32" rx="16" fill="#22D3EE" fill-opacity=".10" stroke="#22D3EE" stroke-opacity=".48"/>
    <text x="904" y="309" text-anchor="middle" class="chip-text">Chunking</text>

    <rect x="958" y="288" width="88" height="32" rx="16" fill="#10B981" fill-opacity=".10" stroke="#10B981" stroke-opacity=".48"/>
    <text x="1002" y="309" text-anchor="middle" class="chip-text">Context</text>
  </g>

  <text x="634" y="347" class="small">pgvector · IVFFlat · HNSW · semantic + keyword retrieval</text>
</g>

<!-- 3 EVAL -->
<g filter="url(#shadow)">
  <rect x="54" y="400" width="520" height="220" rx="24" fill="url(#cardSurface)" stroke="#FFFFFF" stroke-opacity=".08"/>
  <rect x="54" y="400" width="520" height="220" rx="24" fill="none" stroke="url(#accent)" stroke-opacity=".34">
    <animate attributeName="stroke-opacity" values=".22;.72;.22" dur="5.4s" repeatCount="indefinite"/>
  </rect>
  <path d="M54 424Q54 400 78 400H300L220 620H78Q54 620 54 596Z" fill="url(#reflection)" opacity=".3"/>
  <circle cx="91" cy="440" r="21" fill="#10B981" fill-opacity=".14"/>
  <text x="91" y="448" text-anchor="middle" font-size="22">🛡️</text>
  <text x="126" y="438" class="card-label">03 / QUALITY &amp; GOVERNANCE</text>
  <text x="126" y="468" class="card-title">Evaluation, Safety &amp; Observability</text>

  <g>
    <rect x="82" y="494" width="74" height="32" rx="16" fill="#10B981" fill-opacity=".10" stroke="#10B981" stroke-opacity=".48"/>
    <text x="119" y="515" text-anchor="middle" class="chip-text">RAGAS</text>

    <rect x="166" y="494" width="92" height="32" rx="16" fill="#7C3AED" fill-opacity=".13" stroke="#8B5CF6" stroke-opacity=".5"/>
    <text x="212" y="515" text-anchor="middle" class="chip-text">LangSmith</text>

    <rect x="268" y="494" width="104" height="32" rx="16" fill="#22D3EE" fill-opacity=".10" stroke="#22D3EE" stroke-opacity=".48"/>
    <text x="320" y="515" text-anchor="middle" class="chip-text">Arize Phoenix</text>

    <rect x="382" y="494" width="92" height="32" rx="16" fill="#10B981" fill-opacity=".10" stroke="#10B981" stroke-opacity=".48"/>
    <text x="428" y="515" text-anchor="middle" class="chip-text">Guardrails</text>
  </g>

  <g>
    <rect x="82" y="538" width="112" height="32" rx="16" fill="#22D3EE" fill-opacity=".10" stroke="#22D3EE" stroke-opacity=".48"/>
    <text x="138" y="559" text-anchor="middle" class="chip-text">Golden Dataset</text>

    <rect x="204" y="538" width="104" height="32" rx="16" fill="#7C3AED" fill-opacity=".13" stroke="#8B5CF6" stroke-opacity=".5"/>
    <text x="256" y="559" text-anchor="middle" class="chip-text">Regression Tests</text>

    <rect x="318" y="538" width="94" height="32" rx="16" fill="#10B981" fill-opacity=".10" stroke="#10B981" stroke-opacity=".48"/>
    <text x="365" y="559" text-anchor="middle" class="chip-text">Cost/Latency</text>
  </g>

  <text x="82" y="598" class="small">Faithfulness · relevance · consistency · tracing · auditability</text>
</g>

<!-- 4 ENGINEERING -->
<g filter="url(#shadow)">
  <rect x="606" y="400" width="520" height="220" rx="24" fill="url(#cardSurface)" stroke="#FFFFFF" stroke-opacity=".08"/>
  <rect x="606" y="400" width="520" height="220" rx="24" fill="none" stroke="url(#accent)" stroke-opacity=".34">
    <animate attributeName="stroke-opacity" values=".72;.22;.72" dur="5.4s" repeatCount="indefinite"/>
  </rect>
  <path d="M606 424Q606 400 630 400H850L770 620H630Q606 620 606 596Z" fill="url(#reflection)" opacity=".3"/>
  <circle cx="643" cy="440" r="21" fill="#7C3AED" fill-opacity=".16"/>
  <text x="643" y="448" text-anchor="middle" font-size="22">⚙️</text>
  <text x="678" y="438" class="card-label">04 / APPLICATION ENGINEERING</text>
  <text x="678" y="468" class="card-title">Backend, APIs &amp; Product Systems</text>

  <g>
    <rect x="634" y="494" width="82" height="32" rx="16" fill="#22D3EE" fill-opacity=".10" stroke="#22D3EE" stroke-opacity=".48"/>
    <text x="675" y="515" text-anchor="middle" class="chip-text">FastAPI</text>

    <rect x="726" y="494" width="82" height="32" rx="16" fill="#10B981" fill-opacity=".10" stroke="#10B981" stroke-opacity=".48"/>
    <text x="767" y="515" text-anchor="middle" class="chip-text">NestJS</text>

    <rect x="818" y="494" width="86" height="32" rx="16" fill="#7C3AED" fill-opacity=".13" stroke="#8B5CF6" stroke-opacity=".5"/>
    <text x="861" y="515" text-anchor="middle" class="chip-text">Next.js</text>

    <rect x="914" y="494" width="82" height="32" rx="16" fill="#22D3EE" fill-opacity=".10" stroke="#22D3EE" stroke-opacity=".48"/>
    <text x="955" y="515" text-anchor="middle" class="chip-text">Angular</text>
  </g>

  <g>
    <rect x="634" y="538" width="92" height="32" rx="16" fill="#10B981" fill-opacity=".10" stroke="#10B981" stroke-opacity=".48"/>
    <text x="680" y="559" text-anchor="middle" class="chip-text">REST APIs</text>

    <rect x="736" y="538" width="72" height="32" rx="16" fill="#7C3AED" fill-opacity=".13" stroke="#8B5CF6" stroke-opacity=".5"/>
    <text x="772" y="559" text-anchor="middle" class="chip-text">SSE</text>

    <rect x="818" y="538" width="96" height="32" rx="16" fill="#22D3EE" fill-opacity=".10" stroke="#22D3EE" stroke-opacity=".48"/>
    <text x="866" y="559" text-anchor="middle" class="chip-text">WebSockets</text>

    <rect x="924" y="538" width="112" height="32" rx="16" fill="#10B981" fill-opacity=".10" stroke="#10B981" stroke-opacity=".48"/>
    <text x="980" y="559" text-anchor="middle" class="chip-text">Structured Output</text>
  </g>

  <text x="634" y="598" class="small">Function calling · schema validation · streaming · RBAC</text>
</g>

<!-- 5 DATA/CLOUD -->
<g filter="url(#shadow)">
  <rect x="54" y="650" width="520" height="220" rx="24" fill="url(#cardSurface)" stroke="#FFFFFF" stroke-opacity=".08"/>
  <rect x="54" y="650" width="520" height="220" rx="24" fill="none" stroke="url(#accent)" stroke-opacity=".34">
    <animate attributeName="stroke-opacity" values=".22;.72;.22" dur="5.8s" repeatCount="indefinite"/>
  </rect>
  <path d="M54 674Q54 650 78 650H300L220 870H78Q54 870 54 846Z" fill="url(#reflection)" opacity=".3"/>
  <circle cx="91" cy="690" r="21" fill="#22D3EE" fill-opacity=".14"/>
  <text x="91" y="698" text-anchor="middle" font-size="22">☁️</text>
  <text x="126" y="688" class="card-label">05 / DATA &amp; INFRASTRUCTURE</text>
  <text x="126" y="718" class="card-title">Cloud, Data &amp; MLOps</text>

  <g>
    <rect x="82" y="744" width="66" height="32" rx="16" fill="#22D3EE" fill-opacity=".10" stroke="#22D3EE" stroke-opacity=".48"/>
    <text x="115" y="765" text-anchor="middle" class="chip-text">AWS</text>

    <rect x="158" y="744" width="66" height="32" rx="16" fill="#10B981" fill-opacity=".10" stroke="#10B981" stroke-opacity=".48"/>
    <text x="191" y="765" text-anchor="middle" class="chip-text">GCP</text>

    <rect x="234" y="744" width="82" height="32" rx="16" fill="#7C3AED" fill-opacity=".13" stroke="#8B5CF6" stroke-opacity=".5"/>
    <text x="275" y="765" text-anchor="middle" class="chip-text">Docker</text>

    <rect x="326" y="744" width="106" height="32" rx="16" fill="#22D3EE" fill-opacity=".10" stroke="#22D3EE" stroke-opacity=".48"/>
    <text x="379" y="765" text-anchor="middle" class="chip-text">Kubernetes</text>
  </g>

  <g>
    <rect x="82" y="788" width="106" height="32" rx="16" fill="#10B981" fill-opacity=".10" stroke="#10B981" stroke-opacity=".48"/>
    <text x="135" y="809" text-anchor="middle" class="chip-text">PostgreSQL</text>

    <rect x="198" y="788" width="90" height="32" rx="16" fill="#7C3AED" fill-opacity=".13" stroke="#8B5CF6" stroke-opacity=".5"/>
    <text x="243" y="809" text-anchor="middle" class="chip-text">pgvector</text>

    <rect x="298" y="788" width="80" height="32" rx="16" fill="#22D3EE" fill-opacity=".10" stroke="#22D3EE" stroke-opacity=".48"/>
    <text x="338" y="809" text-anchor="middle" class="chip-text">Kafka</text>

    <rect x="388" y="788" width="66" height="32" rx="16" fill="#10B981" fill-opacity=".10" stroke="#10B981" stroke-opacity=".48"/>
    <text x="421" y="809" text-anchor="middle" class="chip-text">Git</text>
  </g>

  <text x="82" y="848" class="small">ETL · deployment pipelines · monitoring · containerization</text>
</g>

<!-- 6 ML -->
<g filter="url(#shadow)">
  <rect x="606" y="650" width="520" height="220" rx="24" fill="url(#cardSurface)" stroke="#FFFFFF" stroke-opacity=".08"/>
  <rect x="606" y="650" width="520" height="220" rx="24" fill="none" stroke="url(#accent)" stroke-opacity=".34">
    <animate attributeName="stroke-opacity" values=".72;.22;.72" dur="5.8s" repeatCount="indefinite"/>
  </rect>
  <path d="M606 674Q606 650 630 650H850L770 870H630Q606 870 606 846Z" fill="url(#reflection)" opacity=".3"/>
  <circle cx="643" cy="690" r="21" fill="#10B981" fill-opacity=".14"/>
  <text x="643" y="698" text-anchor="middle" font-size="22">📈</text>
  <text x="678" y="688" class="card-label">06 / ML &amp; RESEARCH</text>
  <text x="678" y="718" class="card-title">Deep Learning &amp; Forecasting</text>

  <g>
    <rect x="634" y="744" width="82" height="32" rx="16" fill="#7C3AED" fill-opacity=".13" stroke="#8B5CF6" stroke-opacity=".5"/>
    <text x="675" y="765" text-anchor="middle" class="chip-text">PyTorch</text>

    <rect x="726" y="744" width="94" height="32" rx="16" fill="#22D3EE" fill-opacity=".10" stroke="#22D3EE" stroke-opacity=".48"/>
    <text x="773" y="765" text-anchor="middle" class="chip-text">TensorFlow</text>

    <rect x="830" y="744" width="110" height="32" rx="16" fill="#10B981" fill-opacity=".10" stroke="#10B981" stroke-opacity=".48"/>
    <text x="885" y="765" text-anchor="middle" class="chip-text">scikit-learn</text>

    <rect x="950" y="744" width="80" height="32" rx="16" fill="#7C3AED" fill-opacity=".13" stroke="#8B5CF6" stroke-opacity=".5"/>
    <text x="990" y="765" text-anchor="middle" class="chip-text">XGBoost</text>
  </g>

  <g>
    <rect x="634" y="788" width="86" height="32" rx="16" fill="#22D3EE" fill-opacity=".10" stroke="#22D3EE" stroke-opacity=".48"/>
    <text x="677" y="809" text-anchor="middle" class="chip-text">PatchTST</text>

    <rect x="730" y="788" width="76" height="32" rx="16" fill="#10B981" fill-opacity=".10" stroke="#10B981" stroke-opacity=".48"/>
    <text x="768" y="809" text-anchor="middle" class="chip-text">BiLSTM</text>

    <rect x="816" y="788" width="66" height="32" rx="16" fill="#7C3AED" fill-opacity=".13" stroke="#8B5CF6" stroke-opacity=".5"/>
    <text x="849" y="809" text-anchor="middle" class="chip-text">TDA</text>

    <rect x="892" y="788" width="78" height="32" rx="16" fill="#22D3EE" fill-opacity=".10" stroke="#22D3EE" stroke-opacity=".48"/>
    <text x="931" y="809" text-anchor="middle" class="chip-text">Pandas</text>

    <rect x="980" y="788" width="76" height="32" rx="16" fill="#10B981" fill-opacity=".10" stroke="#10B981" stroke-opacity=".48"/>
    <text x="1018" y="809" text-anchor="middle" class="chip-text">NumPy</text>
  </g>

  <text x="634" y="848" class="small">Time series · NLP · transformers · feature engineering</text>
</g>

<rect x="1" y="1" width="1178" height="918" rx="29" fill="none" stroke="url(#accent)" stroke-opacity=".38">
  <animate attributeName="stroke-opacity" values=".22;.58;.22" dur="7s" repeatCount="indefinite"/>
</rect>
</svg>
